<?xml version="1.0" encoding="iso-8859-1"?>
<!-- Generator: Adobe Illustrator 19.0.0, SVG Export Plug-In . SVG Version: 6.00 Build 0)  -->
<svg version="1.1" id="Layer_1" xmlns="http://www.w3.org/2000/svg" xmlns:xlink="http://www.w3.org/1999/xlink" x="0px" y="0px"
	 viewBox="0 0 504.123 504.123" style="enable-background:new 0 0 504.123 504.123;" xml:space="preserve">
<path style="fill:#1D2226;" d="M348.861,136.011c0,6.735,5.474,12.201,12.201,12.201h32.075c6.735,0,12.201-5.459,12.201-12.201
	l19.291-50.853c0-6.735-5.474-12.201-12.217-12.201h-51.358c-6.727,0-12.201,5.459-12.201,12.201v50.853H348.861z"/>
<path style="fill:#2D333A;" d="M266.445,76.406c0,5.734,4.647,10.366,10.366,10.366h147.417c5.727,0,10.366-4.64,10.366-10.366l0,0
	c0-5.727-4.647-10.358-10.366-10.358H276.819C271.092,66.048,266.445,70.688,266.445,76.406L266.445,76.406z"/>
<path style="fill:#1D2226;" d="M348.861,280.938c0,6.743,5.474,12.209,12.201,12.209h32.075c6.735,0,12.201-5.459,12.201-12.209
	l19.291-50.846c0-6.735-5.474-12.201-12.217-12.201h-51.358c-6.727,0-12.201,5.459-12.201,12.201v50.846H348.861z"/>
<path style="fill:#2D333A;" d="M266.445,221.349c0,5.727,4.647,10.366,10.366,10.366h147.417c5.727,0,10.366-4.647,10.366-10.366
	l0,0c0-5.727-4.647-10.358-10.366-10.358H276.819C271.092,210.983,266.445,215.623,266.445,221.349L266.445,221.349z"/>
<path style="fill:#1D2226;" d="M348.861,425.874c0,6.735,5.474,12.201,12.201,12.201h32.075c6.735,0,12.201-5.459,12.201-12.201
	l19.291-50.846c0-6.735-5.474-12.209-12.217-12.209h-51.358c-6.727,0-12.201,5.467-12.201,12.209v50.846H348.861z"/>
<path style="fill:#2D333A;" d="M266.445,366.285c0,5.727,4.647,10.358,10.366,10.358h147.417c5.727,0,10.366-4.64,10.366-10.358l0,0
	c0-5.727-4.647-10.366-10.366-10.366H276.819C271.092,355.919,266.445,360.558,266.445,366.285L266.445,366.285z"/>
<path style="fill:#393F47;" d="M155.262,136.011c0,6.735-5.474,12.201-12.201,12.201h-32.075c-6.735,0-12.201-5.459-12.201-12.201
	L79.494,85.157c0-6.735,5.474-12.201,12.217-12.201h51.358c6.727,0,12.201,5.459,12.201,12.201v50.853H155.262z"/>
<path style="fill:#2D333A;" d="M237.678,76.406c0,5.734-4.647,10.366-10.366,10.366H79.896c-5.727,0-10.366-4.64-10.366-10.366l0,0
	c0-5.727,4.647-10.358,10.366-10.358h147.417C233.031,66.048,237.678,70.688,237.678,76.406L237.678,76.406z"/>
<path style="fill:#393F47;" d="M155.262,280.938c0,6.743-5.474,12.209-12.201,12.209h-32.075c-6.735,0-12.201-5.459-12.201-12.209
	l-19.291-50.846c0-6.735,5.474-12.201,12.217-12.201h51.358c6.727,0,12.201,5.459,12.201,12.201v50.846H155.262z"/>
<path style="fill:#2D333A;" d="M237.678,221.349c0,5.727-4.647,10.366-10.366,10.366H79.896c-5.727,0-10.366-4.647-10.366-10.366
	l0,0c0-5.727,4.647-10.358,10.366-10.358h147.417C233.031,210.983,237.678,215.623,237.678,221.349L237.678,221.349z"/>
<path style="fill:#393F47;" d="M155.262,425.874c0,6.735-5.474,12.201-12.201,12.201h-32.075c-6.735,0-12.201-5.459-12.201-12.201
	l-19.291-50.846c0-6.735,5.474-12.209,12.217-12.209h51.358c6.727,0,12.201,5.467,12.201,12.209v50.846H155.262z"/>
<path style="fill:#2D333A;" d="M237.678,366.285c0,5.727-4.647,10.358-10.366,10.358H79.896c-5.727,0-10.366-4.64-10.366-10.358l0,0
	c0-5.727,4.647-10.366,10.366-10.366h147.417C233.031,355.919,237.678,360.558,237.678,366.285L237.678,366.285z"/>
<path style="fill:#444951;" d="M375.17,472.86c0,17.258,1.749,31.264-15.518,31.264H144.471c-17.258,0-15.518-13.997-15.518-31.264
	V31.264C128.953,14.005,142.958,0,160.225,0h183.674c17.258,0,31.271,13.997,31.271,31.264V472.86z"/>
<path style="fill:#393F47;" d="M128.953,31.264C128.953,14.005,142.958,0,160.225,0h183.674c17.258,0,31.271,13.997,31.271,31.264
	V472.86c0,17.258,1.749,31.264-15.518,31.264"/>
<path style="fill:#2D333A;" d="M301.986,104.369c0,27.191-22.048,80.738-49.231,80.738c-27.199,0-49.231-53.547-49.231-80.738
	s22.032-49.231,49.231-49.231C279.938,55.138,301.986,77.178,301.986,104.369z"/>
<circle style="fill:#EF2E65;" cx="252.755" cy="104.369" r="49.231"/>
<path style="fill:#CC0E57;" d="M217.939,69.561c19.22-19.228,50.389-19.228,69.616,0c19.228,19.22,19.228,50.397,0,69.624"/>
<path style="fill:#2D333A;" d="M301.986,239.592c0,27.191-22.048,80.738-49.231,80.738c-27.199,0-49.231-53.547-49.231-80.738
	s22.032-49.231,49.231-49.231C279.938,190.362,301.986,212.401,301.986,239.592z"/>
<circle style="fill:#EDBF2F;" cx="252.755" cy="239.592" r="49.231"/>
<path style="fill:#DBA81B;" d="M217.939,204.776c19.22-19.228,50.389-19.228,69.616,0c19.228,19.22,19.228,50.397,0,69.624"/>
<path style="fill:#2D333A;" d="M301.986,374.808c0,27.191-22.048,80.738-49.231,80.738c-27.199,0-49.231-53.547-49.231-80.738
	c0-27.191,22.032-49.231,49.231-49.231C279.938,325.577,301.986,347.616,301.986,374.808z"/>
<circle style="fill:#32D85D;" cx="252.755" cy="374.784" r="49.231"/>
<path style="fill:#19BF55;" d="M217.939,340c19.22-19.228,50.389-19.228,69.616,0c19.228,19.22,19.228,50.397,0,69.624"/>
<path style="fill:#4F545B;" d="M144.471,504.123c-17.258,0-15.518-13.997-15.518-31.264V31.264C128.953,14.005,142.958,0,160.225,0"
	/>
<g>
</g>
<g>
</g>
<g>
</g>
<g>
</g>
<g>
</g>
<g>
</g>
<g>
</g>
<g>
</g>
<g>
</g>
<g>
</g>
<g>
</g>
<g>
</g>
<g>
</g>
<g>
</g>
<g>
</g>
</svg>
